<svg width="48" height="48" viewBox="0 0 48 48" fill="none" xmlns="http://www.w3.org/2000/svg">
<path fill-rule="evenodd" clip-rule="evenodd" d="M23.9456 40.7364C17.4676 40.7364 11.9336 39.7564 11.9336 35.8324C11.9336 31.9084 17.4316 28.4924 23.9456 28.4924C30.4236 28.4924 35.9576 31.8764 35.9576 35.7984C35.9576 39.7204 30.4596 40.7364 23.9456 40.7364Z" stroke="black" stroke-width="1.5" stroke-linecap="round" stroke-linejoin="round"/>
<path fill-rule="evenodd" clip-rule="evenodd" d="M23.9452 22.8974C28.1972 22.8974 31.6452 19.4514 31.6452 15.1994C31.6452 10.9474 28.1972 7.49939 23.9452 7.49939C19.6932 7.49939 16.2451 10.9474 16.2451 15.1994C16.2332 19.4354 19.6532 22.8834 23.8912 22.8974H23.9452Z" stroke="black" stroke-width="1.5" stroke-linecap="round" stroke-linejoin="round"/>
<path d="M36.7246 20.7832C39.1986 20.1212 41.0226 17.8652 41.0226 15.1792C41.0226 12.3772 39.0366 10.0372 36.3926 9.49719" stroke="black" stroke-width="1.5" stroke-linecap="round" stroke-linejoin="round"/>
<path d="M37.8867 27.0887C41.3947 27.0887 44.3907 29.4667 44.3907 31.5907C44.3907 32.8407 43.3567 34.2027 41.7887 34.5707" stroke="black" stroke-width="1.5" stroke-linecap="round" stroke-linejoin="round"/>
<path d="M11.1682 20.7832C8.69216 20.1212 6.86816 17.8652 6.86816 15.1792C6.86816 12.3772 8.85616 10.0372 11.4982 9.49719" stroke="black" stroke-width="1.5" stroke-linecap="round" stroke-linejoin="round"/>
<path d="M10.004 27.0887C6.496 27.0887 3.5 29.4667 3.5 31.5907C3.5 32.8407 4.534 34.2027 6.104 34.5707" stroke="black" stroke-width="1.5" stroke-linecap="round" stroke-linejoin="round"/>
</svg>
