<svg width="48" height="48" viewBox="0 0 48 48" fill="none" xmlns="http://www.w3.org/2000/svg">
<path fill-rule="evenodd" clip-rule="evenodd" d="M30.877 24.9962C30.877 21.5225 28.0601 18.7057 24.5864 18.7057C21.1127 18.7057 18.2959 21.5225 18.2959 24.9962C18.2959 28.4699 21.1127 31.2867 24.5864 31.2867C28.0601 31.2867 30.877 28.4699 30.877 24.9962Z" stroke="black" stroke-width="1.5" stroke-linecap="round" stroke-linejoin="round"/>
<path fill-rule="evenodd" clip-rule="evenodd" d="M24.5854 40.4003C40.6759 40.4003 42.5917 35.5792 42.5917 25.1329C42.5917 17.8108 41.6233 13.8929 35.5244 12.2087C34.9644 12.0318 34.3433 11.695 33.8402 11.1413C33.0275 10.2508 32.4338 7.51605 30.4717 6.68868C28.5096 5.86342 20.6296 5.90131 18.6991 6.68868C16.7707 7.47816 16.1433 10.2508 15.3307 11.1413C14.8275 11.695 14.2086 12.0318 13.6465 12.2087C7.54752 13.8929 6.5791 17.8108 6.5791 25.1329C6.5791 35.5792 8.49489 40.4003 24.5854 40.4003Z" stroke="black" stroke-width="1.5" stroke-linecap="round" stroke-linejoin="round"/>
<path d="M34.4092 18H34.4272" stroke="black" stroke-width="1.5" stroke-linecap="round" stroke-linejoin="round"/>
</svg>
