<svg width="48" height="48" viewBox="0 0 48 48" fill="none" xmlns="http://www.w3.org/2000/svg">
<path fill-rule="evenodd" clip-rule="evenodd" d="M42.001 13.3476C42.001 17.4048 38.7106 20.6952 34.6534 20.6952C30.5962 20.6952 27.3076 17.4048 27.3076 13.3476C27.3076 9.2904 30.5962 6 34.6534 6C38.7106 6 42.001 9.2904 42.001 13.3476Z" stroke="black" stroke-width="1.5" stroke-linecap="round" stroke-linejoin="round"/>
<path fill-rule="evenodd" clip-rule="evenodd" d="M20.6934 13.3476C20.6934 17.4048 17.4048 20.6952 13.3458 20.6952C9.2904 20.6952 6 17.4048 6 13.3476C6 9.2904 9.2904 6 13.3458 6C17.4048 6 20.6934 9.2904 20.6934 13.3476Z" stroke="black" stroke-width="1.5" stroke-linecap="round" stroke-linejoin="round"/>
<path fill-rule="evenodd" clip-rule="evenodd" d="M42.001 34.5239C42.001 38.5811 38.7106 41.8697 34.6534 41.8697C30.5962 41.8697 27.3076 38.5811 27.3076 34.5239C27.3076 30.4667 30.5962 27.1763 34.6534 27.1763C38.7106 27.1763 42.001 30.4667 42.001 34.5239Z" stroke="black" stroke-width="1.5" stroke-linecap="round" stroke-linejoin="round"/>
<path fill-rule="evenodd" clip-rule="evenodd" d="M20.6934 34.5239C20.6934 38.5811 17.4048 41.8697 13.3458 41.8697C9.2904 41.8697 6 38.5811 6 34.5239C6 30.4667 9.2904 27.1763 13.3458 27.1763C17.4048 27.1763 20.6934 30.4667 20.6934 34.5239Z" stroke="black" stroke-width="1.5" stroke-linecap="round" stroke-linejoin="round"/>
</svg>
