<svg width="48" height="48" viewBox="0 0 48 48" fill="none" xmlns="http://www.w3.org/2000/svg">
<path fill-rule="evenodd" clip-rule="evenodd" d="M24 19C26.7618 19 29 21.2382 29 24C29 26.7618 26.7618 29 24 29C21.2382 29 19 26.7618 19 24C19 21.2382 21.2382 19 24 19Z" stroke="black" stroke-width="1.5" stroke-linecap="round" stroke-linejoin="round"/>
<path fill-rule="evenodd" clip-rule="evenodd" d="M40.336 14.5005C38.9689 12.116 35.9425 11.3001 33.577 12.677C31.5195 13.8723 28.9481 12.3768 28.9481 9.98435C28.9481 7.23239 26.7318 5 23.9995 5C21.2673 5 19.0509 7.23239 19.0509 9.98435C19.0509 12.3768 16.4795 13.8723 14.424 12.677C12.0566 11.3001 9.03015 12.116 7.66305 14.5005C6.29792 16.885 7.10798 19.9333 9.47538 21.3083C11.5309 22.5055 11.5309 25.4945 9.47538 26.6917C7.10798 28.0687 6.29792 31.117 7.66305 33.4995C9.03015 35.884 12.0566 36.6999 14.422 35.3249H14.424C16.4795 34.1277 19.0509 35.6232 19.0509 38.0156C19.0509 40.7676 21.2673 43 23.9995 43C26.7318 43 28.9481 40.7676 28.9481 38.0156C28.9481 35.6232 31.5195 34.1277 33.577 35.3249C35.9425 36.6999 38.9689 35.884 40.336 33.4995C41.7031 31.117 40.8911 28.0687 38.5256 26.6917H38.5237C36.4681 25.4945 36.4681 22.5055 38.5256 21.3083C40.8911 19.9333 41.7031 16.885 40.336 14.5005Z" stroke="black" stroke-width="1.5" stroke-linecap="round" stroke-linejoin="round"/>
</svg>
